<svg xmlns="http://www.w3.org/2000/svg" width="512" height="512" viewBox="0 0 511.724 511.724" style="enable-background:new 0 0 512 512" xml:space="preserve"><path d="M487.187 232.085c5.773-6.074 6.971-15.434 2.364-22.667-5.406-8.49-16.761-10.836-25.361-5.238l-93.223 69.253c-8.602 5.596-11.188 17.017-5.782 25.508 5.406 8.49 16.761 10.835 25.361 5.238l93.223-69.253a19.08 19.08 0 0 0 3.418-2.841z" fill="#ff68c1" data-original="#ff68c1"/><path d="m493.808 228.009 1.206-1.252c9.187-9.535 8.905-24.711-.63-33.898l-35.047-33.768c-9.535-9.187-24.711-8.904-33.898.63l-1.206 1.251c-9.187 9.535-8.905 24.711.63 33.898l35.047 33.768c9.535 9.188 24.711 8.906 33.898-.629zm-139.925-48.844c15.821 11.666 46.413 6.252 55.368-17.251 8.954-23.503-5.63-50.878-32.575-61.144-26.945-10.266-66.318-8.104-75.273 15.399-3.339 8.765 34.286 18.808 36.914 27.562 4.419 14.72 1.048 24.728 15.566 35.434z" fill="#ff8cc0" data-original="#ff8cc0"/><circle cx="420.888" cy="160.623" r="26.93" transform="rotate(-84.365 420.883 160.614)" fill="#ff68c1" data-original="#ff68c1"/><path d="M24.813 232.085c-5.773-6.074-6.971-15.434-2.364-22.667 5.406-8.49 16.761-10.836 25.361-5.238l93.223 69.253c8.602 5.596 11.188 17.017 5.782 25.508-5.407 8.49-16.761 10.835-25.361 5.238l-93.223-69.253a19.08 19.08 0 0 1-3.418-2.841z" fill="#ff68c1" data-original="#ff68c1"/><path d="m18.192 228.009-1.206-1.252c-9.187-9.535-8.905-24.711.63-33.898l35.047-33.768c9.535-9.187 24.711-8.904 33.898.63l1.206 1.251c9.187 9.535 8.905 24.711-.63 33.898L52.09 228.639c-9.535 9.187-24.712 8.905-33.898-.63zm140.307-61.763c-14.175 13.619-45.211 12.217-57.137-9.927-11.926-22.144-1.014-51.179 24.372-64.851 25.387-13.673 64.708-16.634 76.634 5.51 4.447 8.258-31.558 23.095-33.028 32.115-2.474 15.168 2.167 24.655-10.841 37.153z" fill="#ff8cc0" data-original="#ff8cc0"/><circle cx="91.112" cy="160.623" r="26.93" transform="rotate(-5.635 91.08 160.574)" fill="#ff68c1" data-original="#ff68c1"/><path d="M39.6 300.773c20.916 13.178 46.538 19.35 71.117 17.506a122.685 122.685 0 0 0 23.892-4.356c10.617-3.046 21.693 3.092 24.738 13.709 3.471 11.687-4.748 24.018-16.845 25.374-21.077 2.88-42.904 1.512-63.241-4.447-19.509-5.712-37.74-15.031-53.239-28.128l-1.764-1.563c-4.997-4.237-5.613-11.721-1.376-16.718 4.236-4.997 11.722-5.613 16.718-1.377zm167.759 73.409c-2.924-11.19-14.365-17.892-25.556-14.968l-77.68 20.296c-3.35.711-6.482 2.13-8.826 4.929L45.315 442.84c-4.29 5.048-4.192 12.671.489 17.562 4.999 5.222 13.284 5.403 18.506.405l51.098-48.913 74.926-11.728c12.161-1.84 20.207-14.094 17.025-25.984z" fill="#ff8cc0" data-original="#ff8cc0"/><path d="M250.103 415.33c-2.473-11.389-13.71-18.616-25.099-16.143l-65.233 14.166c-4.56.714-8.834 2.785-11.484 6.987l-32.782 50.848c-8.709 14.323 10.065 28.796 21.699 16.617l34.977-38.74 60.203-8.355c12.1-1.633 20.366-13.452 17.719-25.38z" fill="#ff8cc0" data-original="#ff8cc0"/><path d="M472.4 300.773c-20.916 13.178-46.538 19.35-71.117 17.506a122.685 122.685 0 0 1-23.892-4.356c-10.617-3.046-21.693 3.092-24.738 13.709-3.471 11.687 4.748 24.018 16.845 25.374 21.077 2.88 42.904 1.512 63.241-4.447 19.509-5.712 37.74-15.031 53.239-28.128l1.764-1.563c4.997-4.237 5.613-11.721 1.377-16.718-4.237-4.997-11.723-5.613-16.719-1.377zm-167.759 73.409c2.924-11.19 14.366-17.892 25.556-14.968l77.68 20.296c3.35.711 6.482 2.13 8.826 4.929l49.982 58.401c4.29 5.048 4.192 12.671-.489 17.562-4.999 5.222-13.284 5.403-18.506.405l-51.098-48.913-74.926-11.728c-12.161-1.84-20.207-14.094-17.025-25.984z" fill="#ff68c1" data-original="#ff68c1"/><path d="M261.897 415.33c2.473-11.389 13.71-18.616 25.099-16.143l65.233 14.166c4.56.714 8.834 2.785 11.484 6.987l32.782 50.848c8.709 14.323-10.065 28.796-21.699 16.617l-34.977-38.74-60.203-8.355c-12.1-1.633-20.366-13.452-17.719-25.38z" fill="#ff68c1" data-original="#ff68c1"/><path d="M386.876 316.236c0 62.843-97.357 123.274-130.876 123.274s-140.168-63.059-147.935-120.27c-.547-4.025-1.416-9.098-1.437-13.614 7.562-54.536 65.977-97.598 138.666-101.476 4.176.106 9.205.683 12.801.857 74.83 3.611 128.781 48.385 128.781 111.229z" fill="#ff8cc0" data-original="#ff8cc0"/><path d="M256 203.863c-4.765 0-9.475.176-14.126.505 62.006 4.872 110.355 44.577 110.355 92.839 0 51.553-95.719 107.383-123.215 107.383-26.005 0-113.016-49.937-122.38-98.965a87.492 87.492 0 0 0-.835 12.026c0 62.844 116.683 130.901 150.202 130.901s150.202-68.058 150.202-130.901S338.954 203.863 256 203.863z" fill="#ff68c1" data-original="#ff68c1"/><path d="m443.929 219.231-54.98 40.844m14.467 34.542 80.353-59.692m-143.047-69.997c-7.087 1.142-14.427 2.034-21.048 2.28-27.234 1.012 38.842 31.784 75.038 10.366m25.778 11.598a23.955 23.955 0 0 0 4.374 5.7l35.047 33.768c9.535 9.187 24.711 8.905 33.898-.63l1.206-1.252c9.187-9.535 8.905-24.711-.63-33.898l-35.047-33.768a23.861 23.861 0 0 0-10.649-5.955" style="stroke-width:20;stroke-linecap:round;stroke-linejoin:round;stroke-miterlimit:10" fill="none" stroke="#4e0325" stroke-width="20" stroke-linecap="round" stroke-linejoin="round" stroke-miterlimit="10" data-original="#4e0325"/><path d="M408.753 131.415c-5.203-13.209-16.601-24.749-32.077-30.645-26.945-10.266-66.318-8.104-75.273 15.399-3.339 8.765 34.286 18.808 36.914 27.562 4.419 14.72 1.048 24.728 15.566 35.434 11.279 8.317 30.066 7.953 43.167-1.458" style="stroke-width:20;stroke-linecap:round;stroke-linejoin:round;stroke-miterlimit:10" fill="none" stroke="#4e0325" stroke-width="20" stroke-linecap="round" stroke-linejoin="round" stroke-miterlimit="10" data-original="#4e0325"/><circle cx="420.888" cy="160.623" r="26.93" style="stroke-width:20;stroke-linecap:round;stroke-linejoin:round;stroke-miterlimit:10" transform="rotate(-84.365 420.883 160.614)" fill="none" stroke="#4e0325" stroke-width="20" stroke-linecap="round" stroke-linejoin="round" stroke-miterlimit="10" data-original="#4e0325"/><path d="m68.071 219.231 54.98 40.844m-14.467 34.542-80.353-59.692m141.471-84.502c7.176.214 14.569.146 21.166-.469 26.553-2.473-31.793 34.894-70.541 20.997M91.51 189.172a23.977 23.977 0 0 1-4.373 5.7L52.09 228.639c-9.535 9.187-24.711 8.905-33.898-.63l-1.206-1.252c-9.187-9.535-8.905-24.711.63-33.898l35.047-33.768a23.861 23.861 0 0 1 10.649-5.955" style="stroke-width:20;stroke-linecap:round;stroke-linejoin:round;stroke-miterlimit:10" fill="none" stroke="#4e0325" stroke-width="20" stroke-linecap="round" stroke-linejoin="round" stroke-miterlimit="10" data-original="#4e0325"/><path d="M97.901 126.013c3.446-13.772 13.252-26.692 27.833-34.545 25.387-13.673 64.708-16.634 76.634 5.51 4.447 8.258-31.558 23.095-33.028 32.115-2.473 15.168 2.167 24.655-10.841 37.153-9.403 9.035-26.227 11.459-39.969 5.603" style="stroke-width:20;stroke-linecap:round;stroke-linejoin:round;stroke-miterlimit:10" fill="none" stroke="#4e0325" stroke-width="20" stroke-linecap="round" stroke-linejoin="round" stroke-miterlimit="10" data-original="#4e0325"/><circle cx="91.112" cy="160.623" r="26.93" style="stroke-width:20;stroke-linecap:round;stroke-linejoin:round;stroke-miterlimit:10" transform="rotate(-5.635 91.08 160.574)" fill="none" stroke="#4e0325" stroke-width="20" stroke-linecap="round" stroke-linejoin="round" stroke-miterlimit="10" data-original="#4e0325"/><path d="M116.263 354.38c-12.546-.396-25.032-2.313-37.002-5.821-19.509-5.712-37.74-15.031-53.239-28.128l-1.764-1.563c-4.997-4.237-5.613-11.721-1.376-16.718 4.236-4.997 11.722-5.613 16.718-1.377h0c18.302 11.531 40.206 17.698 61.862 17.824m25.892 54.843-23.232 6.07c-3.35.711-6.482 2.13-8.826 4.929L45.314 442.84c-4.29 5.048-4.192 12.671.489 17.562 4.999 5.222 13.284 5.403 18.506.405l51.098-48.913 47.832-7.487m8.999 6.238-12.467 2.707c-4.56.714-8.834 2.785-11.484 6.987l-32.782 50.848c-8.709 14.323 10.065 28.796 21.699 16.617l34.977-38.74 52.68-7.311m169.851-87.344c12.89-.322 25.731-2.247 38.027-5.85 19.509-5.712 37.74-15.031 53.239-28.128l1.764-1.563c4.997-4.237 5.613-11.721 1.377-16.718-4.236-4.997-11.722-5.613-16.718-1.377h0c-18.901 11.908-41.644 18.095-63.987 17.817m-27.34 53.917 26.803 7.003c3.35.711 6.482 2.13 8.826 4.929l49.982 58.401c4.29 5.048 4.192 12.671-.489 17.562-4.999 5.222-13.284 5.403-18.506.405l-51.098-48.913-49.573-7.759m-7.257 6.51 12.467 2.707c4.56.714 8.834 2.785 11.484 6.987l32.782 50.848c8.709 14.323-10.065 28.796-21.699 16.617l-34.977-38.74-53.667-7.449" style="stroke-width:20;stroke-linecap:round;stroke-linejoin:round;stroke-miterlimit:10" fill="none" stroke="#4e0325" stroke-width="20" stroke-linecap="round" stroke-linejoin="round" stroke-miterlimit="10" data-original="#4e0325"/><path d="M406.202 317.652c0 62.844-116.683 130.901-150.202 130.901s-150.202-68.058-150.202-130.901S173.046 203.863 256 203.863s150.202 50.945 150.202 113.789z" style="stroke-width:20;stroke-linecap:round;stroke-linejoin:round;stroke-miterlimit:10" fill="none" stroke="#4e0325" stroke-width="20" stroke-linecap="round" stroke-linejoin="round" stroke-miterlimit="10" data-original="#4e0325"/><circle cx="208.936" cy="260.074" r="13.488" transform="rotate(-9.213 208.934 260.027)" fill="#4e0325" data-original="#4e0325"/><circle cx="303.064" cy="260.074" r="13.488" transform="rotate(-22.5 303.05 260.065)" fill="#4e0325" data-original="#4e0325"/><path d="M106.5 321.208c14.95 0 14.95 10 29.899 10 14.947 0 14.947-10 29.893-10 14.948 0 14.948 10 29.896 10s14.948-10 29.897-10c14.95 0 14.95 10 29.9 10s14.95-10 29.901-10 14.951 10 29.902 10 14.951-10 29.901-10c14.953 0 14.953 10 29.905 10s14.953-10 29.905-10m-269.1 61.147c14.947 0 14.947-10 29.893-10 14.948 0 14.948 10 29.896 10s14.948-10 29.897-10c14.95 0 14.95 10 29.9 10s14.95-10 29.901-10 14.951 10 29.902 10 14.951-10 29.901-10c14.953 0 14.953 10 29.905 10m-28.576-113.664v11.12m-25.134 12.588v11.12" style="stroke-width:12;stroke-linecap:round;stroke-linejoin:round;stroke-miterlimit:10" fill="none" stroke="#4e0325" stroke-width="12" stroke-linecap="round" stroke-linejoin="round" stroke-miterlimit="10" data-original="#4e0325"/><path d="M141.952 294.617c4.964-10.344 12.214-19.857 21.289-28.187" style="stroke-width:20;stroke-linecap:round;stroke-linejoin:round;stroke-miterlimit:10" fill="none" stroke="#fff" stroke-width="20" stroke-linecap="round" stroke-linejoin="round" stroke-miterlimit="10" data-original="#ffffff"/><circle cx="487.793" cy="94.929" r="17.984" transform="rotate(-87.799 487.781 94.922)" fill="#ff8cc0" data-original="#ff8cc0"/><circle cx="125.124" cy="32.659" r="7.592" fill="#ff8cc0" data-original="#ff8cc0"/><path d="m424.986 18.291-6.093 17.133c-.261.734-.777 1.315-1.429 1.609l-15.223 6.858c-2.151.969-2.151 4.395 0 5.364l15.223 6.858c.652.294 1.168.875 1.429 1.609l6.093 17.134c.861 2.42 3.905 2.42 4.766 0l6.093-17.134c.261-.734.777-1.315 1.429-1.609l15.222-6.858c2.15-.969 2.15-4.395 0-5.364l-15.222-6.858c-.652-.294-1.168-.875-1.429-1.609l-6.093-17.133c-.861-2.421-3.906-2.421-4.766 0zm-392.149-6.49-8.214 23.098c-.352.989-1.048 1.773-1.927 2.169L2.174 46.312c-2.899 1.306-2.899 5.926 0 7.232l20.521 9.246c.879.396 1.575 1.18 1.927 2.168l8.214 23.098c1.16 3.263 5.265 3.263 6.425 0l8.214-23.098c.352-.989 1.048-1.773 1.927-2.168l20.521-9.246c2.899-1.306 2.899-5.925 0-7.232l-20.521-9.245c-.879-.396-1.575-1.18-1.927-2.169L39.261 11.8c-1.16-3.263-5.264-3.263-6.424.001z" fill="#ffc5dd" data-original="#ffc5dd"/></svg>