<svg xmlns="http://www.w3.org/2000/svg" width="512" height="512" viewBox="0 0 682.667 682.667" style="enable-background:new 0 0 512 512" xml:space="preserve"><defs><clipPath id="a" clipPathUnits="userSpaceOnUse"><path d="M0 512h512V0H0Z" data-original="#000000"/></clipPath></defs><g clip-path="url(#a)" transform="matrix(1.33333 0 0 -1.33333 0 682.667)"><path d="M0 0h-30v-51H0c5.523 0 10 4.477 10 10v31C10-4.477 5.523 0 0 0" style="fill-opacity:1;fill-rule:nonzero;stroke:none" transform="translate(494.5 364)" fill="#edebed" data-original="#edebed"/><path d="M0 0v-60.5c0-16.569-13.431-30-30-30h-89.5l10 30H-35a5 5 0 0 1 5 5V0Z" style="fill-opacity:1;fill-rule:nonzero;stroke:none" transform="translate(293.5 289.5)" fill="#5d5360" data-original="#5d5360"/><path d="M0 0v-60.5c0-16.57-13.43-30-30-30h-30c16.57 0 30 13.43 30 30V0Z" style="fill-opacity:1;fill-rule:nonzero;stroke:none" transform="translate(293.5 289.5)" fill="#534c56" data-original="#534c56"/><path d="M0 0h-20a5 5 0 0 1-5-5v-35H5v35a5 5 0 0 1-5 5" style="fill-opacity:1;fill-rule:nonzero;stroke:none" transform="translate(62.5 426)" fill="#edebed" data-original="#edebed"/><path d="M0 0h-20a5 5 0 0 1-5-5v-35H5v35a5 5 0 0 1-5 5" style="fill-opacity:1;fill-rule:nonzero;stroke:none" transform="translate(439.5 426)" fill="#edebed" data-original="#edebed"/><path d="M0 0v-95c0-5.523-4.477-10-10-10h-232.89c-12.67 0-23.96-7.95-28.24-19.86L-323.23-270h-107.893c-3.461 0-5.875 3.432-4.706 6.689l37.619 104.801c9.35 26.06-9.96 53.51-37.65 53.51H-457c-5.523 0-10 4.477-10 10V0c0 5.523 4.477 10 10 10h447C-4.477 10 0 5.523 0 0" style="fill-opacity:1;fill-rule:nonzero;stroke:none" transform="translate(474.5 386)" fill="#9f9aa0" data-original="#9f9aa0"/><path d="M0 0v-95c0-5.52-4.48-10-10-10h-30c5.52 0 10 4.48 10 10V0c0 5.52-4.48 10-10 10h30C-4.48 10 0 5.52 0 0" style="fill-opacity:1;fill-rule:nonzero;stroke:none" transform="translate(474.5 386)" fill="#918993" data-original="#918993"/><path d="M0 0v-35c0-5.52-4.48-10-10-10h-232.89c-12.67 0-23.96-7.95-28.24-19.86L-323.23-210h-107.89c-3.46 0-5.88 3.43-4.71 6.69l37.62 104.8c9.35 26.06-9.96 53.51-37.65 53.51H-457c-5.52 0-10 4.48-10 10V0Z" style="fill-opacity:1;fill-rule:nonzero;stroke:none" transform="translate(474.5 326)" fill="#6f6571" data-original="#6f6571"/><path d="M0 0c-12.67 0-23.96-7.95-28.24-19.86L-80.34-165h-30l52.1 145.14A30.003 30.003 0 0 0-30 0Z" style="fill-opacity:1;fill-rule:nonzero;stroke:none" transform="translate(231.61 281)" fill="#5d5360" data-original="#5d5360"/><path d="m0 0-10.77-30h-107.89c-3.46 0-5.88 3.43-4.71 6.69L-115 0Z" style="fill-opacity:1;fill-rule:nonzero;stroke:none" transform="translate(162.04 146)" fill="#5d5360" data-original="#5d5360"/><path d="m0 0-10.77-30h-30L-30 0Z" style="fill-opacity:1;fill-rule:nonzero;stroke:none" transform="translate(162.04 146)" fill="#534c56" data-original="#534c56"/><path d="M0 0v-35c0-5.52-4.48-10-10-10h-30c5.52 0 10 4.48 10 10V0Z" style="fill-opacity:1;fill-rule:nonzero;stroke:none" transform="translate(474.5 326)" fill="#5d5360" data-original="#5d5360"/><path d="m0 0-8.393-23.379A10 10 0 0 0-17.805-30h-80.858c-3.461 0-5.875 3.432-4.705 6.689L-95 0Z" style="fill-opacity:1;fill-rule:nonzero;stroke:none" transform="translate(151.27 116)" fill="#9f9aa0" data-original="#9f9aa0"/><path d="m0 0-8.39-23.38A10.003 10.003 0 0 0-17.8-30h-30c4.22 0 7.98 2.65 9.41 6.62L-30 0Z" style="fill-opacity:1;fill-rule:nonzero;stroke:none" transform="translate(151.27 116)" fill="#918993" data-original="#918993"/><path d="M0 0v-95c0-5.523-4.477-10-10-10h-232.89c-12.67 0-23.96-7.95-28.24-19.86L-323.23-270h-107.893c-3.461 0-5.875 3.432-4.706 6.689l37.619 104.801c9.35 26.06-9.96 53.51-37.65 53.51H-457c-5.523 0-10 4.477-10 10V0c0 5.523 4.477 10 10 10h447C-4.477 10 0 5.523 0 0Z" style="stroke-width:15;stroke-linecap:round;stroke-linejoin:round;stroke-miterlimit:10;stroke-dasharray:none;stroke-opacity:1" transform="translate(474.5 386)" fill="none" stroke="#000" stroke-width="15" stroke-linecap="round" stroke-linejoin="round" stroke-miterlimit="10" data-original="#000000"/><path d="m0 0-8.329-23.2a10 10 0 0 0-9.412-6.621h-80.857c-3.461 0-5.876 3.432-4.706 6.69l7.697 21.441" style="stroke-width:15;stroke-linecap:round;stroke-linejoin:round;stroke-miterlimit:10;stroke-dasharray:none;stroke-opacity:1" transform="translate(151.206 115.82)" fill="none" stroke="#000" stroke-width="15" stroke-linecap="round" stroke-linejoin="round" stroke-miterlimit="10" data-original="#000000"/><path d="M0 0h61.5a5 5 0 0 1 5 5v46" style="stroke-width:15;stroke-linecap:round;stroke-linejoin:round;stroke-miterlimit:10;stroke-dasharray:none;stroke-opacity:1" transform="translate(197 229)" fill="none" stroke="#000" stroke-width="15" stroke-linecap="round" stroke-linejoin="round" stroke-miterlimit="10" data-original="#000000"/><path d="M0 0h79.5c16.569 0 30 13.431 30 30v50.5" style="stroke-width:15;stroke-linecap:round;stroke-linejoin:round;stroke-miterlimit:10;stroke-dasharray:none;stroke-opacity:1" transform="translate(184 199)" fill="none" stroke="#000" stroke-width="15" stroke-linecap="round" stroke-linejoin="round" stroke-miterlimit="10" data-original="#000000"/><path d="M0 0h29.333" style="stroke-width:15;stroke-linecap:round;stroke-linejoin:round;stroke-miterlimit:10;stroke-dasharray:none;stroke-opacity:1" transform="translate(444.667 326)" fill="none" stroke="#000" stroke-width="15" stroke-linecap="round" stroke-linejoin="round" stroke-miterlimit="10" data-original="#000000"/><path d="M0 0h402.167" style="stroke-width:15;stroke-linecap:round;stroke-linejoin:round;stroke-miterlimit:10;stroke-dasharray:none;stroke-opacity:1" transform="translate(7.5 326)" fill="none" stroke="#000" stroke-width="15" stroke-linecap="round" stroke-linejoin="round" stroke-miterlimit="10" data-original="#000000"/><path d="M0 0h18.625c5.523 0 10 4.477 10 10v31c0 5.523-4.477 10-10 10H1.001" style="stroke-width:15;stroke-linecap:round;stroke-linejoin:round;stroke-miterlimit:10;stroke-dasharray:none;stroke-opacity:1" transform="translate(475.875 313)" fill="none" stroke="#000" stroke-width="15" stroke-linecap="round" stroke-linejoin="round" stroke-miterlimit="10" data-original="#000000"/><path d="M0 0v-70" style="stroke-width:15;stroke-linecap:round;stroke-linejoin:round;stroke-miterlimit:10;stroke-dasharray:none;stroke-opacity:1" transform="translate(157.5 396)" fill="none" stroke="#000" stroke-width="15" stroke-linecap="round" stroke-linejoin="round" stroke-miterlimit="10" data-original="#000000"/><path d="M0 0v-70" style="stroke-width:15;stroke-linecap:round;stroke-linejoin:round;stroke-miterlimit:10;stroke-dasharray:none;stroke-opacity:1" transform="translate(37.5 396)" fill="none" stroke="#000" stroke-width="15" stroke-linecap="round" stroke-linejoin="round" stroke-miterlimit="10" data-original="#000000"/><path d="M0 0v-70" style="stroke-width:15;stroke-linecap:round;stroke-linejoin:round;stroke-miterlimit:10;stroke-dasharray:none;stroke-opacity:1" transform="translate(67.5 396)" fill="none" stroke="#000" stroke-width="15" stroke-linecap="round" stroke-linejoin="round" stroke-miterlimit="10" data-original="#000000"/><path d="M0 0v-70" style="stroke-width:15;stroke-linecap:round;stroke-linejoin:round;stroke-miterlimit:10;stroke-dasharray:none;stroke-opacity:1" transform="translate(97.5 396)" fill="none" stroke="#000" stroke-width="15" stroke-linecap="round" stroke-linejoin="round" stroke-miterlimit="10" data-original="#000000"/><path d="M0 0v-70" style="stroke-width:15;stroke-linecap:round;stroke-linejoin:round;stroke-miterlimit:10;stroke-dasharray:none;stroke-opacity:1" transform="translate(127.5 396)" fill="none" stroke="#000" stroke-width="15" stroke-linecap="round" stroke-linejoin="round" stroke-miterlimit="10" data-original="#000000"/><path d="M0 0v22.833a5 5 0 0 1-5 5h-20a5 5 0 0 1-5-5V0" style="stroke-width:15;stroke-linecap:round;stroke-linejoin:round;stroke-miterlimit:10;stroke-dasharray:none;stroke-opacity:1" transform="translate(67.5 398.167)" fill="none" stroke="#000" stroke-width="15" stroke-linecap="round" stroke-linejoin="round" stroke-miterlimit="10" data-original="#000000"/><path d="M0 0v23.333a5 5 0 0 1-5 5h-20a5 5 0 0 1-5-5v-24" style="stroke-width:15;stroke-linecap:round;stroke-linejoin:round;stroke-miterlimit:10;stroke-dasharray:none;stroke-opacity:1" transform="translate(444.5 397.667)" fill="none" stroke="#000" stroke-width="15" stroke-linecap="round" stroke-linejoin="round" stroke-miterlimit="10" data-original="#000000"/><path d="M0 0h51.25" style="stroke-width:15;stroke-linecap:round;stroke-linejoin:round;stroke-miterlimit:10;stroke-dasharray:none;stroke-opacity:1" transform="translate(109.75 146)" fill="none" stroke="#000" stroke-width="15" stroke-linecap="round" stroke-linejoin="round" stroke-miterlimit="10" data-original="#000000"/><path d="M0 0h26.75" style="stroke-width:15;stroke-linecap:round;stroke-linejoin:round;stroke-miterlimit:10;stroke-dasharray:none;stroke-opacity:1" transform="translate(48 146)" fill="none" stroke="#000" stroke-width="15" stroke-linecap="round" stroke-linejoin="round" stroke-miterlimit="10" data-original="#000000"/></g></svg>